<?xml version="1.0" encoding="UTF-8"?>
<svg id="Layer_1" data-name="Layer 1" xmlns="http://www.w3.org/2000/svg" viewBox="0 0 360 360">
  <path d="M185.44,251.27c-21.4,0-39.75-4.7-55.05-14.09-15.3-9.39-27.07-22.39-35.3-39-8.23-16.61-12.35-35.74-12.35-57.42s4.19-41,12.56-57.7c8.37-16.7,20.21-29.72,35.51-39.07,15.3-9.35,33.42-14.02,54.35-14.02,17.39,0,32.81,3.19,46.26,9.56,13.44,6.37,24.16,15.35,32.16,26.93,8,11.58,12.56,25.09,13.67,40.53h-48.28c-1.95-10.33-6.58-18.95-13.88-25.88-7.3-6.93-17.05-10.4-29.23-10.4-10.33,0-19.4,2.77-27.21,8.3-7.81,5.54-13.88,13.46-18.21,23.79-4.33,10.33-6.49,22.7-6.49,37.12s2.14,27.14,6.42,37.6c4.28,10.47,10.3,18.51,18.07,24.14,7.77,5.63,16.91,8.44,27.42,8.44,7.44,0,14.11-1.42,20.02-4.26,5.91-2.84,10.86-6.95,14.86-12.35,4-5.39,6.74-11.95,8.23-19.67h48.28c-1.21,15.16-5.68,28.58-13.4,40.26-7.72,11.67-18.23,20.79-31.53,27.35-13.3,6.56-28.93,9.84-46.88,9.84Z"/>
  <rect x="88.52" y="290.84" width="182.96" height="39.2"/>
</svg>